
<svg width="658" height="135" viewBox="0 0 658 135" fill="none" xmlns="http://www.w3.org/2000/svg">
<path d="M202.13 99H186.74L161 60.03V99H145.61V35.82H161L186.74 74.97V35.82H202.13V99ZM263.236 35.82V48.15H246.496V99H231.106V48.15H214.366V35.82H263.236ZM307.68 99L294.54 75.15H290.85V99H275.46V35.82H301.29C306.27 35.82 310.5 36.69 313.98 38.43C317.52 40.17 320.16 42.57 321.9 45.63C323.64 48.63 324.51 51.99 324.51 55.71C324.51 59.91 323.31 63.66 320.91 66.96C318.57 70.26 315.09 72.6 310.47 73.98L325.05 99H307.68ZM290.85 64.26H300.39C303.21 64.26 305.31 63.57 306.69 62.19C308.13 60.81 308.85 58.86 308.85 56.34C308.85 53.94 308.13 52.05 306.69 50.67C305.31 49.29 303.21 48.6 300.39 48.6H290.85V64.26ZM378.001 87.84H354.421L350.641 99H334.531L357.391 35.82H375.211L398.071 99H381.781L378.001 87.84ZM374.041 75.96L366.211 52.83L358.471 75.96H374.041ZM406.918 67.32C406.918 61.08 408.268 55.53 410.968 50.67C413.668 45.75 417.418 41.94 422.218 39.24C427.078 36.48 432.568 35.1 438.688 35.1C446.188 35.1 452.608 37.08 457.948 41.04C463.288 45 466.858 50.4 468.658 57.24H451.738C450.478 54.6 448.678 52.59 446.338 51.21C444.058 49.83 441.448 49.14 438.508 49.14C433.768 49.14 429.928 50.79 426.988 54.09C424.048 57.39 422.578 61.8 422.578 67.32C422.578 72.84 424.048 77.25 426.988 80.55C429.928 83.85 433.768 85.5 438.508 85.5C441.448 85.5 444.058 84.81 446.338 83.43C448.678 82.05 450.478 80.04 451.738 77.4H468.658C466.858 84.24 463.288 89.64 457.948 93.6C452.608 97.5 446.188 99.45 438.688 99.45C432.568 99.45 427.078 98.1 422.218 95.4C417.418 92.64 413.668 88.83 410.968 83.97C408.268 79.11 406.918 73.56 406.918 67.32ZM519.213 99L497.973 71.1V99H482.583V35.82H497.973V63.54L519.033 35.82H537.123L512.643 66.78L538.023 99H519.213ZM565.227 48.15V60.93H585.837V72.81H565.227V86.67H588.537V99H549.837V35.82H588.537V48.15H565.227ZM635.248 99L622.108 75.15H618.418V99H603.028V35.82H628.858C633.838 35.82 638.068 36.69 641.548 38.43C645.088 40.17 647.728 42.57 649.468 45.63C651.208 48.63 652.078 51.99 652.078 55.71C652.078 59.91 650.878 63.66 648.478 66.96C646.138 70.26 642.658 72.6 638.038 73.98L652.618 99H635.248ZM618.418 64.26H627.958C630.778 64.26 632.878 63.57 634.258 62.19C635.698 60.81 636.418 58.86 636.418 56.34C636.418 53.94 635.698 52.05 634.258 50.67C632.878 49.29 630.778 48.6 627.958 48.6H618.418V64.26Z" fill="url(#paint0_linear)"/>
<path fill-rule="evenodd" clip-rule="evenodd" d="M52.9469 42.5902C52.3355 42.051 51.6965 41.5343 51.03 41.04C45.69 37.08 39.27 35.1 31.77 35.1C25.65 35.1 20.16 36.48 15.3 39.24C10.5 41.94 6.75 45.75 4.05 50.67C1.35 55.53 0 61.08 0 67.32C0 73.56 1.35 79.11 4.05 83.97C6.75 88.83 10.5 92.64 15.3 95.4C20.16 98.1 25.65 99.45 31.77 99.45C39.27 99.45 45.69 97.5 51.03 93.6C51.8194 93.0146 52.57 92.3978 53.282 91.7495C49.3869 87.8546 46.4054 83.0458 44.687 77.6724C43.4345 80.1787 41.6788 82.0979 39.42 83.43C37.14 84.81 34.53 85.5 31.59 85.5C26.85 85.5 23.01 83.85 20.07 80.55C17.13 77.25 15.66 72.84 15.66 67.32C15.66 61.8 17.13 57.39 20.07 54.09C23.01 50.79 26.85 49.14 31.59 49.14C34.53 49.14 37.14 49.83 39.42 51.21C41.6051 52.4987 43.3194 54.3367 44.5627 56.7241C46.2119 51.3467 49.1215 46.5205 52.9469 42.5902Z" fill="#BB4BFF"/>
<path fill-rule="evenodd" clip-rule="evenodd" d="M109.61 86.6482C113.047 81.0817 115.03 74.5224 115.03 67.5C115.03 60.4776 113.047 53.9183 109.61 48.3518L109.61 35.82H125V99H109.61V86.6482Z" fill="#BB4BFF"/>
<circle cx="60.53" cy="57.5" r="5.5" fill="#BB4BFF"/>
<circle cx="70.03" cy="50" r="4" fill="#BB4BFF"/>
<circle cx="72.03" cy="61" r="4" fill="#BB4BFF"/>
<defs>
<linearGradient id="paint0_linear" x1="309.03" y1="62.5" x2="155.03" y2="62.5" gradientUnits="userSpaceOnUse">
<stop stop-color="white"/>
<stop offset="1" stop-color="#BB4BFF"/>
</linearGradient>
</defs>
</svg>